<mxfile host="app.diagrams.net" modified="2022-12-07T15:56:52.323Z" agent="5.0 (Windows)" etag="KW__O_LZurySbw8RYMQ8" version="20.6.0" type="github">
  <diagram id="C5RBs43oDa-KdzZeNtuy" name="Page-1">
    <mxGraphModel dx="1038" dy="564" grid="1" gridSize="10" guides="1" tooltips="1" connect="1" arrows="1" fold="1" page="1" pageScale="1" pageWidth="827" pageHeight="1169" math="0" shadow="0">
      <root>
        <mxCell id="WIyWlLk6GJQsqaUBKTNV-0" />
        <mxCell id="WIyWlLk6GJQsqaUBKTNV-1" parent="WIyWlLk6GJQsqaUBKTNV-0" />
        <mxCell id="N8UwQEfGi8VB_1onj86U-0" value="Chef" style="swimlane;whiteSpace=wrap" vertex="1" parent="WIyWlLk6GJQsqaUBKTNV-1">
          <mxGeometry x="164.5" y="128" width="275.5" height="570" as="geometry" />
        </mxCell>
        <mxCell id="N8UwQEfGi8VB_1onj86U-1" value="" style="ellipse;shape=startState;fillColor=#000000;strokeColor=#ff0000;" vertex="1" parent="N8UwQEfGi8VB_1onj86U-0">
          <mxGeometry x="100" y="40" width="30" height="30" as="geometry" />
        </mxCell>
        <mxCell id="N8UwQEfGi8VB_1onj86U-2" value="" style="edgeStyle=elbowEdgeStyle;elbow=horizontal;verticalAlign=bottom;endArrow=open;endSize=8;strokeColor=#FF0000;endFill=1;rounded=0" edge="1" parent="N8UwQEfGi8VB_1onj86U-0" source="N8UwQEfGi8VB_1onj86U-1" target="N8UwQEfGi8VB_1onj86U-3">
          <mxGeometry x="100" y="40" as="geometry">
            <mxPoint x="115" y="110" as="targetPoint" />
          </mxGeometry>
        </mxCell>
        <mxCell id="N8UwQEfGi8VB_1onj86U-3" value="Sucht nach PSP-&#xa;Element" style="" vertex="1" parent="N8UwQEfGi8VB_1onj86U-0">
          <mxGeometry x="60" y="110" width="110" height="50" as="geometry" />
        </mxCell>
        <mxCell id="N8UwQEfGi8VB_1onj86U-4" value="Wählt PSP-Element&#xa;aus" style="" vertex="1" parent="N8UwQEfGi8VB_1onj86U-0">
          <mxGeometry x="60" y="172" width="110" height="50" as="geometry" />
        </mxCell>
        <mxCell id="N8UwQEfGi8VB_1onj86U-5" value="" style="endArrow=open;strokeColor=#FF0000;endFill=1;rounded=0" edge="1" parent="N8UwQEfGi8VB_1onj86U-0">
          <mxGeometry relative="1" as="geometry">
            <mxPoint x="115.5" y="162" as="sourcePoint" />
            <mxPoint x="115.5" y="172" as="targetPoint" />
          </mxGeometry>
        </mxCell>
        <mxCell id="N8UwQEfGi8VB_1onj86U-6" value="weißt Mitarbeiter zu" style="" vertex="1" parent="N8UwQEfGi8VB_1onj86U-0">
          <mxGeometry x="60" y="252" width="110" height="50" as="geometry" />
        </mxCell>
        <mxCell id="N8UwQEfGi8VB_1onj86U-7" value="" style="endArrow=open;strokeColor=#FF0000;endFill=1;rounded=0;entryX=0.5;entryY=0;entryDx=0;entryDy=0;entryPerimeter=0;exitX=0.495;exitY=1.04;exitDx=0;exitDy=0;exitPerimeter=0;" edge="1" parent="N8UwQEfGi8VB_1onj86U-0" source="N8UwQEfGi8VB_1onj86U-4" target="N8UwQEfGi8VB_1onj86U-6">
          <mxGeometry relative="1" as="geometry">
            <mxPoint x="175.5" y="244" as="sourcePoint" />
          </mxGeometry>
        </mxCell>
        <mxCell id="N8UwQEfGi8VB_1onj86U-10" value="Mitarbeiter" style="swimlane;whiteSpace=wrap" vertex="1" parent="WIyWlLk6GJQsqaUBKTNV-1">
          <mxGeometry x="440" y="128" width="280" height="570" as="geometry" />
        </mxCell>
        <mxCell id="N8UwQEfGi8VB_1onj86U-9" value="&lt;div&gt;Benachrichtigung&lt;/div&gt;&lt;div&gt;für PSP Zuweisung&lt;br&gt;&lt;/div&gt;" style="ellipse;whiteSpace=wrap;html=1;aspect=fixed;" vertex="1" parent="N8UwQEfGi8VB_1onj86U-10">
          <mxGeometry x="70" y="232" width="128" height="128" as="geometry" />
        </mxCell>
        <mxCell id="N8UwQEfGi8VB_1onj86U-21" value="" style="endArrow=classic;html=1;rounded=0;exitX=1.014;exitY=0.6;exitDx=0;exitDy=0;exitPerimeter=0;entryX=0;entryY=0.5;entryDx=0;entryDy=0;" edge="1" parent="WIyWlLk6GJQsqaUBKTNV-1" source="N8UwQEfGi8VB_1onj86U-6" target="N8UwQEfGi8VB_1onj86U-9">
          <mxGeometry width="50" height="50" relative="1" as="geometry">
            <mxPoint x="390" y="440" as="sourcePoint" />
            <mxPoint x="440" y="390" as="targetPoint" />
          </mxGeometry>
        </mxCell>
      </root>
    </mxGraphModel>
  </diagram>
</mxfile>
